%TF.GenerationSoftware,KiCad,Pcbnew,9.0.7*%
%TF.CreationDate,2026-03-28T08:01:16+01:00*%
%TF.ProjectId,Psu,5073752e-6b69-4636-9164-5f7063625858,rev?*%
%TF.SameCoordinates,Original*%
%TF.FileFunction,Legend,Top*%
%TF.FilePolarity,Positive*%
%FSLAX46Y46*%
G04 Gerber Fmt 4.6, Leading zero omitted, Abs format (unit mm)*
G04 Created by KiCad (PCBNEW 9.0.7) date 2026-03-28 08:01:16*
%MOMM*%
%LPD*%
G01*
G04 APERTURE LIST*
%ADD10C,0.150000*%
%ADD11C,0.120000*%
G04 APERTURE END LIST*
D10*
X128653095Y-85979819D02*
X128653095Y-86789342D01*
X128653095Y-86789342D02*
X128700714Y-86884580D01*
X128700714Y-86884580D02*
X128748333Y-86932200D01*
X128748333Y-86932200D02*
X128843571Y-86979819D01*
X128843571Y-86979819D02*
X129034047Y-86979819D01*
X129034047Y-86979819D02*
X129129285Y-86932200D01*
X129129285Y-86932200D02*
X129176904Y-86884580D01*
X129176904Y-86884580D02*
X129224523Y-86789342D01*
X129224523Y-86789342D02*
X129224523Y-85979819D01*
X130224523Y-86979819D02*
X129653095Y-86979819D01*
X129938809Y-86979819D02*
X129938809Y-85979819D01*
X129938809Y-85979819D02*
X129843571Y-86122676D01*
X129843571Y-86122676D02*
X129748333Y-86217914D01*
X129748333Y-86217914D02*
X129653095Y-86265533D01*
X127929580Y-98029166D02*
X127977200Y-98076785D01*
X127977200Y-98076785D02*
X128024819Y-98219642D01*
X128024819Y-98219642D02*
X128024819Y-98314880D01*
X128024819Y-98314880D02*
X127977200Y-98457737D01*
X127977200Y-98457737D02*
X127881961Y-98552975D01*
X127881961Y-98552975D02*
X127786723Y-98600594D01*
X127786723Y-98600594D02*
X127596247Y-98648213D01*
X127596247Y-98648213D02*
X127453390Y-98648213D01*
X127453390Y-98648213D02*
X127262914Y-98600594D01*
X127262914Y-98600594D02*
X127167676Y-98552975D01*
X127167676Y-98552975D02*
X127072438Y-98457737D01*
X127072438Y-98457737D02*
X127024819Y-98314880D01*
X127024819Y-98314880D02*
X127024819Y-98219642D01*
X127024819Y-98219642D02*
X127072438Y-98076785D01*
X127072438Y-98076785D02*
X127120057Y-98029166D01*
X127120057Y-97648213D02*
X127072438Y-97600594D01*
X127072438Y-97600594D02*
X127024819Y-97505356D01*
X127024819Y-97505356D02*
X127024819Y-97267261D01*
X127024819Y-97267261D02*
X127072438Y-97172023D01*
X127072438Y-97172023D02*
X127120057Y-97124404D01*
X127120057Y-97124404D02*
X127215295Y-97076785D01*
X127215295Y-97076785D02*
X127310533Y-97076785D01*
X127310533Y-97076785D02*
X127453390Y-97124404D01*
X127453390Y-97124404D02*
X128024819Y-97695832D01*
X128024819Y-97695832D02*
X128024819Y-97076785D01*
X125419580Y-98029166D02*
X125467200Y-98076785D01*
X125467200Y-98076785D02*
X125514819Y-98219642D01*
X125514819Y-98219642D02*
X125514819Y-98314880D01*
X125514819Y-98314880D02*
X125467200Y-98457737D01*
X125467200Y-98457737D02*
X125371961Y-98552975D01*
X125371961Y-98552975D02*
X125276723Y-98600594D01*
X125276723Y-98600594D02*
X125086247Y-98648213D01*
X125086247Y-98648213D02*
X124943390Y-98648213D01*
X124943390Y-98648213D02*
X124752914Y-98600594D01*
X124752914Y-98600594D02*
X124657676Y-98552975D01*
X124657676Y-98552975D02*
X124562438Y-98457737D01*
X124562438Y-98457737D02*
X124514819Y-98314880D01*
X124514819Y-98314880D02*
X124514819Y-98219642D01*
X124514819Y-98219642D02*
X124562438Y-98076785D01*
X124562438Y-98076785D02*
X124610057Y-98029166D01*
X125514819Y-97076785D02*
X125514819Y-97648213D01*
X125514819Y-97362499D02*
X124514819Y-97362499D01*
X124514819Y-97362499D02*
X124657676Y-97457737D01*
X124657676Y-97457737D02*
X124752914Y-97552975D01*
X124752914Y-97552975D02*
X124800533Y-97648213D01*
X113313333Y-97804819D02*
X112980000Y-97328628D01*
X112741905Y-97804819D02*
X112741905Y-96804819D01*
X112741905Y-96804819D02*
X113122857Y-96804819D01*
X113122857Y-96804819D02*
X113218095Y-96852438D01*
X113218095Y-96852438D02*
X113265714Y-96900057D01*
X113265714Y-96900057D02*
X113313333Y-96995295D01*
X113313333Y-96995295D02*
X113313333Y-97138152D01*
X113313333Y-97138152D02*
X113265714Y-97233390D01*
X113265714Y-97233390D02*
X113218095Y-97281009D01*
X113218095Y-97281009D02*
X113122857Y-97328628D01*
X113122857Y-97328628D02*
X112741905Y-97328628D01*
X113694286Y-96900057D02*
X113741905Y-96852438D01*
X113741905Y-96852438D02*
X113837143Y-96804819D01*
X113837143Y-96804819D02*
X114075238Y-96804819D01*
X114075238Y-96804819D02*
X114170476Y-96852438D01*
X114170476Y-96852438D02*
X114218095Y-96900057D01*
X114218095Y-96900057D02*
X114265714Y-96995295D01*
X114265714Y-96995295D02*
X114265714Y-97090533D01*
X114265714Y-97090533D02*
X114218095Y-97233390D01*
X114218095Y-97233390D02*
X113646667Y-97804819D01*
X113646667Y-97804819D02*
X114265714Y-97804819D01*
X108645180Y-94166666D02*
X107930895Y-94166666D01*
X107930895Y-94166666D02*
X107788038Y-94119047D01*
X107788038Y-94119047D02*
X107692800Y-94023809D01*
X107692800Y-94023809D02*
X107645180Y-93880952D01*
X107645180Y-93880952D02*
X107645180Y-93785714D01*
X107645180Y-95166666D02*
X107645180Y-94595238D01*
X107645180Y-94880952D02*
X108645180Y-94880952D01*
X108645180Y-94880952D02*
X108502323Y-94785714D01*
X108502323Y-94785714D02*
X108407085Y-94690476D01*
X108407085Y-94690476D02*
X108359466Y-94595238D01*
X114738095Y-97006819D02*
X115309523Y-97006819D01*
X115023809Y-98006819D02*
X115023809Y-97006819D01*
X115642857Y-98006819D02*
X115642857Y-97006819D01*
X115642857Y-97006819D02*
X116023809Y-97006819D01*
X116023809Y-97006819D02*
X116119047Y-97054438D01*
X116119047Y-97054438D02*
X116166666Y-97102057D01*
X116166666Y-97102057D02*
X116214285Y-97197295D01*
X116214285Y-97197295D02*
X116214285Y-97340152D01*
X116214285Y-97340152D02*
X116166666Y-97435390D01*
X116166666Y-97435390D02*
X116119047Y-97483009D01*
X116119047Y-97483009D02*
X116023809Y-97530628D01*
X116023809Y-97530628D02*
X115642857Y-97530628D01*
X117166666Y-98006819D02*
X116595238Y-98006819D01*
X116880952Y-98006819D02*
X116880952Y-97006819D01*
X116880952Y-97006819D02*
X116785714Y-97149676D01*
X116785714Y-97149676D02*
X116690476Y-97244914D01*
X116690476Y-97244914D02*
X116595238Y-97292533D01*
X113313333Y-93804819D02*
X112980000Y-93328628D01*
X112741905Y-93804819D02*
X112741905Y-92804819D01*
X112741905Y-92804819D02*
X113122857Y-92804819D01*
X113122857Y-92804819D02*
X113218095Y-92852438D01*
X113218095Y-92852438D02*
X113265714Y-92900057D01*
X113265714Y-92900057D02*
X113313333Y-92995295D01*
X113313333Y-92995295D02*
X113313333Y-93138152D01*
X113313333Y-93138152D02*
X113265714Y-93233390D01*
X113265714Y-93233390D02*
X113218095Y-93281009D01*
X113218095Y-93281009D02*
X113122857Y-93328628D01*
X113122857Y-93328628D02*
X112741905Y-93328628D01*
X114265714Y-93804819D02*
X113694286Y-93804819D01*
X113980000Y-93804819D02*
X113980000Y-92804819D01*
X113980000Y-92804819D02*
X113884762Y-92947676D01*
X113884762Y-92947676D02*
X113789524Y-93042914D01*
X113789524Y-93042914D02*
X113694286Y-93090533D01*
X117238095Y-94506819D02*
X117809523Y-94506819D01*
X117523809Y-95506819D02*
X117523809Y-94506819D01*
X118142857Y-95506819D02*
X118142857Y-94506819D01*
X118142857Y-94506819D02*
X118523809Y-94506819D01*
X118523809Y-94506819D02*
X118619047Y-94554438D01*
X118619047Y-94554438D02*
X118666666Y-94602057D01*
X118666666Y-94602057D02*
X118714285Y-94697295D01*
X118714285Y-94697295D02*
X118714285Y-94840152D01*
X118714285Y-94840152D02*
X118666666Y-94935390D01*
X118666666Y-94935390D02*
X118619047Y-94983009D01*
X118619047Y-94983009D02*
X118523809Y-95030628D01*
X118523809Y-95030628D02*
X118142857Y-95030628D01*
X119095238Y-94602057D02*
X119142857Y-94554438D01*
X119142857Y-94554438D02*
X119238095Y-94506819D01*
X119238095Y-94506819D02*
X119476190Y-94506819D01*
X119476190Y-94506819D02*
X119571428Y-94554438D01*
X119571428Y-94554438D02*
X119619047Y-94602057D01*
X119619047Y-94602057D02*
X119666666Y-94697295D01*
X119666666Y-94697295D02*
X119666666Y-94792533D01*
X119666666Y-94792533D02*
X119619047Y-94935390D01*
X119619047Y-94935390D02*
X119047619Y-95506819D01*
X119047619Y-95506819D02*
X119666666Y-95506819D01*
D11*
%TO.C,U1*%
X126105000Y-87575000D02*
X126105000Y-87845000D01*
X126105000Y-94475000D02*
X126105000Y-94205000D01*
X132525000Y-87575000D02*
X126105000Y-87575000D01*
X132525000Y-94475000D02*
X126105000Y-94475000D01*
X124375000Y-87885000D02*
X124035000Y-87415000D01*
X124715000Y-87415000D01*
X124375000Y-87885000D01*
G36*
X124375000Y-87885000D02*
G01*
X124035000Y-87415000D01*
X124715000Y-87415000D01*
X124375000Y-87885000D01*
G37*
%TO.C,C2*%
X128490000Y-98008767D02*
X128490000Y-97716233D01*
X129510000Y-98008767D02*
X129510000Y-97716233D01*
%TO.C,C1*%
X125980000Y-98008767D02*
X125980000Y-97716233D01*
X127000000Y-98008767D02*
X127000000Y-97716233D01*
%TO.C,R2*%
X113707064Y-94965000D02*
X113252936Y-94965000D01*
X113707064Y-96435000D02*
X113252936Y-96435000D01*
%TO.C,J1*%
X103250000Y-89830000D02*
X104950000Y-89830000D01*
X103250000Y-99170000D02*
X104950000Y-99170000D01*
%TO.C,TP1*%
X115300000Y-98300000D02*
X116700000Y-98300000D01*
X115300000Y-99700000D02*
X115300000Y-98300000D01*
X116700000Y-98300000D02*
X116700000Y-99700000D01*
X116700000Y-99700000D02*
X115300000Y-99700000D01*
%TO.C,R1*%
X113707064Y-90965000D02*
X113252936Y-90965000D01*
X113707064Y-92435000D02*
X113252936Y-92435000D01*
%TO.C,TP2*%
X117800000Y-95800000D02*
X119200000Y-95800000D01*
X117800000Y-97200000D02*
X117800000Y-95800000D01*
X119200000Y-95800000D02*
X119200000Y-97200000D01*
X119200000Y-97200000D02*
X117800000Y-97200000D01*
%TD*%
M02*
