%TF.GenerationSoftware,KiCad,Pcbnew,9.0.7*%
%TF.CreationDate,2026-03-28T08:01:16+01:00*%
%TF.ProjectId,Psu,5073752e-6b69-4636-9164-5f7063625858,rev?*%
%TF.SameCoordinates,Original*%
%TF.FileFunction,Copper,L1,Top*%
%TF.FilePolarity,Positive*%
%FSLAX46Y46*%
G04 Gerber Fmt 4.6, Leading zero omitted, Abs format (unit mm)*
G04 Created by KiCad (PCBNEW 9.0.7) date 2026-03-28 08:01:16*
%MOMM*%
%LPD*%
G01*
G04 APERTURE LIST*
G04 Aperture macros list*
%AMRoundRect*
0 Rectangle with rounded corners*
0 $1 Rounding radius*
0 $2 $3 $4 $5 $6 $7 $8 $9 X,Y pos of 4 corners*
0 Add a 4 corners polygon primitive as box body*
4,1,4,$2,$3,$4,$5,$6,$7,$8,$9,$2,$3,0*
0 Add four circle primitives for the rounded corners*
1,1,$1+$1,$2,$3*
1,1,$1+$1,$4,$5*
1,1,$1+$1,$6,$7*
1,1,$1+$1,$8,$9*
0 Add four rect primitives between the rounded corners*
20,1,$1+$1,$2,$3,$4,$5,0*
20,1,$1+$1,$4,$5,$6,$7,0*
20,1,$1+$1,$6,$7,$8,$9,0*
20,1,$1+$1,$8,$9,$2,$3,0*%
G04 Aperture macros list end*
%TA.AperFunction,SMDPad,CuDef*%
%ADD10RoundRect,0.250000X-0.850000X-0.350000X0.850000X-0.350000X0.850000X0.350000X-0.850000X0.350000X0*%
%TD*%
%TA.AperFunction,SMDPad,CuDef*%
%ADD11RoundRect,0.249997X-2.950003X-2.650003X2.950003X-2.650003X2.950003X2.650003X-2.950003X2.650003X0*%
%TD*%
%TA.AperFunction,SMDPad,CuDef*%
%ADD12RoundRect,0.237500X0.237500X-0.300000X0.237500X0.300000X-0.237500X0.300000X-0.237500X-0.300000X0*%
%TD*%
%TA.AperFunction,SMDPad,CuDef*%
%ADD13RoundRect,0.250000X0.350000X0.450000X-0.350000X0.450000X-0.350000X-0.450000X0.350000X-0.450000X0*%
%TD*%
%TA.AperFunction,SMDPad,CuDef*%
%ADD14RoundRect,0.175000X-0.425000X0.175000X-0.425000X-0.175000X0.425000X-0.175000X0.425000X0.175000X0*%
%TD*%
%TA.AperFunction,SMDPad,CuDef*%
%ADD15RoundRect,0.190000X0.410000X-0.190000X0.410000X0.190000X-0.410000X0.190000X-0.410000X-0.190000X0*%
%TD*%
%TA.AperFunction,SMDPad,CuDef*%
%ADD16RoundRect,0.200000X0.400000X-0.200000X0.400000X0.200000X-0.400000X0.200000X-0.400000X-0.200000X0*%
%TD*%
%TA.AperFunction,SMDPad,CuDef*%
%ADD17RoundRect,0.175000X0.425000X-0.175000X0.425000X0.175000X-0.425000X0.175000X-0.425000X-0.175000X0*%
%TD*%
%TA.AperFunction,SMDPad,CuDef*%
%ADD18RoundRect,0.190000X-0.410000X0.190000X-0.410000X-0.190000X0.410000X-0.190000X0.410000X0.190000X0*%
%TD*%
%TA.AperFunction,SMDPad,CuDef*%
%ADD19RoundRect,0.200000X-0.400000X0.200000X-0.400000X-0.200000X0.400000X-0.200000X0.400000X0.200000X0*%
%TD*%
%TA.AperFunction,HeatsinkPad*%
%ADD20O,1.700000X1.100000*%
%TD*%
%TA.AperFunction,SMDPad,CuDef*%
%ADD21R,1.000000X1.000000*%
%TD*%
%TA.AperFunction,Conductor*%
%ADD22C,0.200000*%
%TD*%
G04 APERTURE END LIST*
D10*
%TO.P,U1,1,GND*%
%TO.N,GND*%
X124375000Y-88745000D03*
%TO.P,U1,2,VO*%
%TO.N,Net-(U1-VO)*%
X124375000Y-91025000D03*
D11*
X130675000Y-91025000D03*
D10*
%TO.P,U1,3,VI*%
%TO.N,Net-(U1-VI)*%
X124375000Y-93305000D03*
%TD*%
D12*
%TO.P,C2,1*%
%TO.N,Net-(U1-VO)*%
X129000000Y-98725000D03*
%TO.P,C2,2*%
%TO.N,GND*%
X129000000Y-97000000D03*
%TD*%
%TO.P,C1,1*%
%TO.N,Net-(U1-VI)*%
X126490000Y-98725000D03*
%TO.P,C1,2*%
%TO.N,GND*%
X126490000Y-97000000D03*
%TD*%
D13*
%TO.P,R2,1*%
%TO.N,GND*%
X114480000Y-95700000D03*
%TO.P,R2,2*%
%TO.N,Net-(J1-CC2)*%
X112480000Y-95700000D03*
%TD*%
D14*
%TO.P,J1,A5,CC1*%
%TO.N,Net-(J1-CC1)*%
X106080000Y-94000000D03*
D15*
%TO.P,J1,A9,VBUS*%
%TO.N,Net-(U1-VI)*%
X106080000Y-96020000D03*
D16*
%TO.P,J1,A12,GND*%
%TO.N,GND*%
X106080000Y-97250000D03*
D17*
%TO.P,J1,B5,CC2*%
%TO.N,Net-(J1-CC2)*%
X106080000Y-95000000D03*
D18*
%TO.P,J1,B9,VBUS*%
%TO.N,Net-(U1-VI)*%
X106080000Y-92980000D03*
D19*
%TO.P,J1,B12,GND*%
%TO.N,GND*%
X106080000Y-91750000D03*
D20*
%TO.P,J1,S1,SHIELD*%
X106000000Y-90180000D03*
X102200000Y-90180000D03*
X106000000Y-98820000D03*
X102200000Y-98820000D03*
%TD*%
D21*
%TO.P,TP1,1,1*%
%TO.N,Net-(U1-VI)*%
X116000000Y-99000000D03*
%TD*%
D13*
%TO.P,R1,1*%
%TO.N,GND*%
X114480000Y-91700000D03*
%TO.P,R1,2*%
%TO.N,Net-(J1-CC1)*%
X112480000Y-91700000D03*
%TD*%
D21*
%TO.P,TP2,1,1*%
%TO.N,GND*%
X118500000Y-96500000D03*
%TD*%
D22*
%TO.N,Net-(U1-VO)*%
X129000000Y-98725000D02*
X130675000Y-97050000D01*
X130675000Y-97050000D02*
X130675000Y-91025000D01*
%TO.N,Net-(U1-VI)*%
X126490000Y-98725000D02*
X121727500Y-98725000D01*
X121727500Y-98725000D02*
X121452500Y-99000000D01*
%TO.N,GND*%
X126490000Y-97000000D02*
X126490000Y-95235840D01*
X126490000Y-95235840D02*
X125460160Y-94206000D01*
X129000000Y-97000000D02*
X126206000Y-94206000D01*
X126206000Y-94206000D02*
X125460160Y-94206000D01*
%TO.N,Net-(U1-VO)*%
X124375000Y-91025000D02*
X122974000Y-89624000D01*
X127494000Y-87844000D02*
X130675000Y-91025000D01*
X122974000Y-89624000D02*
X122974000Y-88159840D01*
X122974000Y-88159840D02*
X123289840Y-87844000D01*
X123289840Y-87844000D02*
X127494000Y-87844000D01*
%TO.N,GND*%
X124375000Y-88745000D02*
X125776000Y-90146000D01*
X125776000Y-90146000D02*
X125776000Y-93890160D01*
X125776000Y-93890160D02*
X125460160Y-94206000D01*
X125460160Y-94206000D02*
X119986000Y-94206000D01*
X119986000Y-94206000D02*
X118280000Y-92500000D01*
%TO.N,Net-(U1-VI)*%
X106080000Y-92980000D02*
X106164064Y-92980000D01*
X106164064Y-92980000D02*
X109984064Y-89160000D01*
X109984064Y-89160000D02*
X120230000Y-89160000D01*
X120230000Y-89160000D02*
X124375000Y-93305000D01*
%TO.N,GND*%
X118480000Y-92700000D02*
X118280000Y-92500000D01*
X114500000Y-98000000D02*
X106820000Y-98000000D01*
X118280000Y-92500000D02*
X117480000Y-91700000D01*
X118480000Y-94700000D02*
X115880000Y-97300000D01*
X118480000Y-92700000D02*
X118480000Y-94700000D01*
X120500000Y-98000000D02*
X114500000Y-98000000D01*
X120500000Y-98000000D02*
X120500000Y-96720000D01*
X116300000Y-97300000D02*
X117000000Y-98000000D01*
X115880000Y-95700000D02*
X115880000Y-97300000D01*
X117480000Y-91700000D02*
X114480000Y-91700000D01*
X115880000Y-97300000D02*
X116300000Y-97300000D01*
X117000000Y-98000000D02*
X120500000Y-98000000D01*
X120500000Y-98000000D02*
X120000000Y-98000000D01*
X120500000Y-96720000D02*
X118480000Y-94700000D01*
X106820000Y-98000000D02*
X106000000Y-98820000D01*
X115880000Y-95700000D02*
X114480000Y-95700000D01*
X120000000Y-98000000D02*
X119250000Y-97250000D01*
X119250000Y-97250000D02*
X106080000Y-97250000D01*
X118500000Y-96500000D02*
X119250000Y-97250000D01*
%TO.N,Net-(U1-VI)*%
X116000000Y-99000000D02*
X121452500Y-99000000D01*
%TO.N,Net-(J1-CC1)*%
X112480000Y-91700000D02*
X112430000Y-91650000D01*
X111030000Y-91650000D02*
X110500000Y-91120000D01*
X110500000Y-91120000D02*
X109560000Y-91120000D01*
X109560000Y-91120000D02*
X106680000Y-94000000D01*
X106680000Y-94000000D02*
X106080000Y-94000000D01*
X112430000Y-91650000D02*
X111030000Y-91650000D01*
%TO.N,Net-(J1-CC2)*%
X111080000Y-95700000D02*
X112480000Y-95700000D01*
X111080000Y-95700000D02*
X110380000Y-95000000D01*
X110380000Y-95000000D02*
X106080000Y-95000000D01*
%TD*%
M02*
